<svg xmlns="http://www.w3.org/2000/svg" id="gears" viewBox="0 0 640 640" fill="none" stroke="#666" stroke-width="30">
  <path d="M18.9,352.1c3.5-75.3-18.9-72.9,58.7-88.2c6.8-1.5,12.5-6.4,15-12.9c3.1-12.5,23.8-46.4,13.8-58.8c-43.5-66.9-29.6-49.1,20.1-103.8c27.2-25.4,53.2,36.7,81.2,23.8c11.1-7,49.5-16.2,50.4-32.8c0,0,7.9-42.1,7.9-42.1c1.9-9.9,10.5-17,20.5-17c75.4,3.5,69.9-19.3,90.1,59.1c2.1,15.1,41.5,24.9,52.1,31.4c15,8.7,44.3-18.9,56.8-24.4c8.1-5,18.6-3.9,25.5,2.8c0,0,41.5,40.3,41.5,40.3c7.2,7,8.4,18.1,2.9,26.4c-34.7,51.9-32.6,38.5-8.3,94.9c2.8,6.6,8.8,11.3,15.9,12.4c0,0,40.8,6.6,40.8,6.6c10.1,1.6,17.6,10.4,17.6,20.6c0,0,0,57.1,0,57.1c0,9.9-7,18.5-16.7,20.5c-61.5,12.1-49.8,3.9-73.3,60.8c-10.8,26.5,46.1,56.8,21.4,82.1c-55.5,48.8-38.5,63.5-103,18.9c-5.9-3.9-13.4-4.5-19.9-1.6c-57.1,24.8-47.3,13.9-59.1,74.4c-1.9,9.8-10.5,16.9-20.5,16.9h-56.5c-9.9,0-18.5-7-20.5-16.7c0,0-8.6-42.3-8.6-42.3c-1.4-6.8-6-12.4-12.4-15.1c-13-3.7-45.5-25.7-58.6-14.5c0,0-34.8,23.4-34.8,23.4c-8.5,5.7-19.9,4.4-26.9-3.1c0,0-38.9-41.7-38.9-41.7c-17.1-17,10.7-42.5,18-57.6c10.6-12.8-11.3-46.1-14.6-58.8C85.2,365.2,20.2,388.7,18.9,352.1z"/>
  <path d="M162.4,271.4c7.8-23.2,12.3-32.9,39.1-27.2c12.2,2.6,20.9-9.1,27.8-17.2c7.8-7.8,4.6-20.1,2.5-29.6c-1.9-9.5,3-19.1,11.8-23.1c20-10.1,32.4-14.4,45.2,8.2c4.2,6.2,11.4,9.8,18.9,9.2c10.1-0.3,23.8-0.6,29.1-10.9c6-12.1,15.8-23.4,30.6-17.9c13.2,4.6,30.7,9.4,29,27.1c-1,9.7-3.2,22.7,5.1,29.9c7.4,7.6,17.2,19,29.2,15.9c12.7-3.5,27.6-5.1,34.3,9.2c6.8,13.2,15.9,29.2,0.6,40.6c-8.3,5.5-18.1,12.8-16.9,24c0.2,19,0.9,26.2,19.2,34.9c8.9,5.1,12.8,15.8,9.2,25.4c-4.6,13.8-10,30.5-28.2,27.7c-21-4.7-25-0.2-38.3,14.9c-8.1,7.6-5.2,20-3,29.5c3.5,18.2-13.5,24.3-27.1,29.7c-14.3,6.2-24.4-4-31.4-15.4c-6.6-10.3-20.7-8.6-31.2-7.7c-11,0-17.5,10.6-22.2,19.1c-9.9,15.7-25.8,9.1-39.5,3.4c-14.9-5.7-14.8-20.3-11.6-33.5c2.7-11.6-8.1-20.6-15.8-27.4c-17.3-16.5-38.8,12.6-52.8-15.1c-8.9-19.4-13.6-31.1,7.4-44.4c10-6.5,8.4-20.5,7.9-30.7c-0.2-7.1-4.1-13.7-10.2-17.3C168.6,296.6,156.8,287.1,162.4,271.4z"/>
  <circle cx="320" cy="320" r="60.2"/>
</svg>